<?xml version="1.0" encoding="UTF-8"?>
<svg viewBox="0 0 400 400" xmlns="http://www.w3.org/2000/svg">
  <!-- Background -->
  <rect x="0" y="0" width="400" height="400" fill="#020817"/>
  
  <!-- Neural Network Elements -->
  <g>
    <!-- Connections -->
    <g stroke="#00cec9" stroke-width="4" opacity="0.8">
      <path d="M120,120 L200,160"/>
      <path d="M120,120 L200,240"/>
      <path d="M120,200 L200,160"/>
      <path d="M120,200 L200,240"/>
      <path d="M120,280 L200,160"/>
      <path d="M120,280 L200,240"/>
      <path d="M200,160 L280,200"/>
      <path d="M200,240 L280,200"/>
    </g>

    <!-- Nodes -->
    <g>
      <circle cx="120" cy="120" r="22" fill="#6c5ce7"/>
      <text x="120" y="120" font-family="Arial" font-size="18" font-weight="bold" fill="white" text-anchor="middle" dy="6">S</text>

      <circle cx="120" cy="200" r="22" fill="#6c5ce7"/>
      <text x="120" y="200" font-family="Arial" font-size="18" font-weight="bold" fill="white" text-anchor="middle" dy="6">U</text>

      <circle cx="120" cy="280" r="22" fill="#6c5ce7"/>
      <text x="120" y="280" font-family="Arial" font-size="18" font-weight="bold" fill="white" text-anchor="middle" dy="6">R</text>

      <circle cx="200" cy="160" r="22" fill="#6c5ce7"/>
      <text x="200" y="160" font-family="Arial" font-size="18" font-weight="bold" fill="white" text-anchor="middle" dy="6">Y</text>

      <circle cx="200" cy="240" r="22" fill="#6c5ce7"/>
      <text x="200" y="240" font-family="Arial" font-size="18" font-weight="bold" fill="white" text-anchor="middle" dy="6">A</text>

      <circle cx="280" cy="200" r="22" fill="#6c5ce7"/>
      <text x="280" y="200" font-family="Arial" font-size="18" font-weight="bold" fill="white" text-anchor="middle" dy="6">P</text>
    </g>
  </g>
</svg> 