<?xml version="1.0" encoding="UTF-8"?>
<svg viewBox="0 0 400 400" xmlns="http://www.w3.org/2000/svg">
  <!-- Background Circle -->
  <circle cx="200" cy="200" r="180" fill="#f8f9fa" />
  
  <!-- Neural Network Elements -->
  <g stroke="#6c5ce7" stroke-width="2.5">
    <!-- Nodes -->
    <circle cx="120" cy="120" r="15" fill="#6c5ce7" opacity="0.9" />
    <circle cx="120" cy="200" r="15" fill="#6c5ce7" opacity="0.9" />
    <circle cx="120" cy="280" r="15" fill="#6c5ce7" opacity="0.9" />
    
    <circle cx="200" cy="160" r="15" fill="#6c5ce7" opacity="0.9" />
    <circle cx="200" cy="240" r="15" fill="#6c5ce7" opacity="0.9" />
    
    <circle cx="280" cy="200" r="15" fill="#6c5ce7" opacity="0.9" />
    
    <!-- Connections -->
    <line x1="120" y1="120" x2="200" y2="160" />
    <line x1="120" y1="120" x2="200" y2="240" />
    <line x1="120" y1="200" x2="200" y2="160" />
    <line x1="120" y1="200" x2="200" y2="240" />
    <line x1="120" y1="280" x2="200" y2="160" />
    <line x1="120" y1="280" x2="200" y2="240" />
    
    <line x1="200" y1="160" x2="280" y2="200" />
    <line x1="200" y1="240" x2="280" y2="200" />
  </g>
  
  <!-- Data Points (Scatter Plot Elements) -->
  <g>
    <circle cx="140" cy="140" r="4" fill="#00cec9" />
    <circle cx="160" cy="130" r="4" fill="#00cec9" />
    <circle cx="180" cy="145" r="4" fill="#00cec9" />
    <circle cx="155" cy="160" r="4" fill="#00cec9" />
    <circle cx="170" cy="170" r="4" fill="#00cec9" />
    
    <circle cx="225" cy="185" r="4" fill="#ff7675" />
    <circle cx="240" cy="210" r="4" fill="#ff7675" />
    <circle cx="235" cy="230" r="4" fill="#ff7675" />
    <circle cx="255" cy="220" r="4" fill="#ff7675" />
    <circle cx="260" cy="195" r="4" fill="#ff7675" />
  </g>
  
  <!-- Decision Boundary -->
  <path d="M130,190 Q200,140 270,210" stroke="#fdcb6e" stroke-width="3" fill="none" stroke-dasharray="5,5" />
  
  <!-- Binary Data Background Elements -->
  <g fill="#2d3436" opacity="0.15" font-family="monospace" font-size="8">
    <text x="90" y="105">10110</text>
    <text x="95" y="185">01001</text>
    <text x="95" y="265">11010</text>
    <text x="185" y="145">00111</text>
    <text x="185" y="225">10101</text>
    <text x="265" y="185">11100</text>
  </g>
  
  <!-- Statistical Elements -->
  <g stroke="#e84393" stroke-width="1.5" fill="none">
    <path d="M320,120 C330,130 325,150 335,160 C345,170 350,180 345,190" />
    <path d="M310,280 C320,270 325,250 335,240 C345,230 350,220 345,210" />
  </g>
</svg> 